<svg width="348" height="33" viewBox="0 0 348 33" fill="none" xmlns="http://www.w3.org/2000/svg">
<path d="M0.0640001 32L10.648 0.471999H18.32L29.128 32H24.144L14.568 2.432L4.992 32H0.0640001ZM6.504 22.592L6.672 18.896H22.352L22.576 22.592H6.504ZM54.8158 32H50.1678V0.471999H54.8158V32ZM54.1438 0.471999H62.4878C65.9971 0.471999 68.6851 1.33067 70.5518 3.048C72.4558 4.76533 73.4078 7.34133 73.4078 10.776C73.4078 13.8747 72.4371 16.2827 70.4958 18C68.5545 19.7173 65.8851 20.576 62.4878 20.576H54.1438V17.048H61.9278C64.1678 17.048 65.9225 16.5253 67.1918 15.48C68.4985 14.4347 69.1518 12.848 69.1518 10.72C69.1518 8.51733 68.5171 6.912 67.2478 5.904C65.9785 4.85867 64.2051 4.336 61.9278 4.336H54.1438V0.471999ZM94.3597 32V0.471999H116.2V4.504H98.9517V14.08H112.392V17.944H98.9517V28.192H116.76V32H94.3597ZM138.837 32V0.471999H149.869C152.557 0.471999 154.834 0.751998 156.701 1.312C158.605 1.872 160.061 2.824 161.069 4.168C162.077 5.47467 162.581 7.28533 162.581 9.6C162.581 11.2053 162.301 12.6427 161.741 13.912C161.218 15.1813 160.415 16.1893 159.333 16.936C158.25 17.6453 156.906 18 155.301 18C156.533 18 157.485 18.2427 158.157 18.728C158.866 19.176 159.389 19.792 159.725 20.576C160.061 21.3227 160.285 22.1253 160.397 22.984C160.509 23.8427 160.583 24.6827 160.621 25.504C160.695 26.3253 160.826 27.0347 161.013 27.632C161.199 28.2293 161.517 28.64 161.965 28.864C162.45 29.088 163.141 29.032 164.037 28.696V31.496C163.514 31.944 162.842 32.2427 162.021 32.392C161.199 32.5787 160.359 32.5227 159.501 32.224C158.679 31.9627 157.97 31.4027 157.373 30.544C156.813 29.648 156.533 28.36 156.533 26.68C156.533 25.112 156.458 23.8053 156.309 22.76C156.197 21.7147 155.917 20.912 155.469 20.352C155.021 19.7547 154.33 19.3253 153.397 19.064C152.463 18.7653 151.194 18.616 149.589 18.616C148.021 18.5787 146.005 18.5973 143.541 18.672V32H138.837ZM143.541 15.2H150.037C151.941 15.2 153.509 15.088 154.741 14.864C155.973 14.6027 156.887 14.0987 157.485 13.352C158.119 12.568 158.437 11.4293 158.437 9.936C158.437 8.18133 158.063 6.912 157.317 6.128C156.57 5.344 155.487 4.85867 154.069 4.672C152.65 4.448 150.895 4.336 148.805 4.336H143.541V15.2ZM197.691 1.48V32H193.043V1.48H197.691ZM183.299 4.504V0.471999H207.379V4.504H183.299ZM241.485 32.784C237.154 32.784 233.831 31.552 231.517 29.088C229.239 26.5867 228.101 23.0773 228.101 18.56V0.471999H232.973V18.504C232.973 20.3333 233.197 21.8827 233.645 23.152C234.13 24.384 234.765 25.392 235.549 26.176C236.333 26.9227 237.229 27.4827 238.237 27.856C239.282 28.192 240.365 28.36 241.485 28.36C243.165 28.36 244.639 28.0613 245.909 27.464C247.215 26.8293 248.223 25.784 248.933 24.328C249.679 22.872 250.053 20.9307 250.053 18.504V0.471999H254.925V18.56C254.925 23.152 253.786 26.68 251.509 29.144C249.269 31.5707 245.927 32.784 241.485 32.784ZM278.049 32V0.471999H289.081C291.769 0.471999 294.047 0.751998 295.913 1.312C297.817 1.872 299.273 2.824 300.281 4.168C301.289 5.47467 301.793 7.28533 301.793 9.6C301.793 11.2053 301.513 12.6427 300.953 13.912C300.431 15.1813 299.628 16.1893 298.545 16.936C297.463 17.6453 296.119 18 294.513 18C295.745 18 296.697 18.2427 297.369 18.728C298.079 19.176 298.601 19.792 298.937 20.576C299.273 21.3227 299.497 22.1253 299.609 22.984C299.721 23.8427 299.796 24.6827 299.833 25.504C299.908 26.3253 300.039 27.0347 300.225 27.632C300.412 28.2293 300.729 28.64 301.177 28.864C301.663 29.088 302.353 29.032 303.249 28.696V31.496C302.727 31.944 302.055 32.2427 301.233 32.392C300.412 32.5787 299.572 32.5227 298.713 32.224C297.892 31.9627 297.183 31.4027 296.585 30.544C296.025 29.648 295.745 28.36 295.745 26.68C295.745 25.112 295.671 23.8053 295.521 22.76C295.409 21.7147 295.129 20.912 294.681 20.352C294.233 19.7547 293.543 19.3253 292.609 19.064C291.676 18.7653 290.407 18.616 288.801 18.616C287.233 18.5787 285.217 18.5973 282.753 18.672V32H278.049ZM282.753 15.2H289.249C291.153 15.2 292.721 15.088 293.953 14.864C295.185 14.6027 296.1 14.0987 296.697 13.352C297.332 12.568 297.649 11.4293 297.649 9.936C297.649 8.18133 297.276 6.912 296.529 6.128C295.783 5.344 294.7 4.85867 293.281 4.672C291.863 4.448 290.108 4.336 288.017 4.336H282.753V15.2ZM325.032 32V0.471999H346.872V4.504H329.624V14.08H343.064V17.944H329.624V28.192H347.432V32H325.032Z" fill="white"/>
</svg>
