<svg width="351" height="137" viewBox="0 0 351 137" fill="none" xmlns="http://www.w3.org/2000/svg">
<path d="M1.064 59L11.648 27.472H19.32L30.128 59H25.144L15.568 29.432L5.992 59H1.064ZM7.504 49.592L7.672 45.896H23.352L23.576 49.592H7.504ZM55.8158 59H51.1678V27.472H55.8158V59ZM55.1438 27.472H63.4878C66.9971 27.472 69.6851 28.3307 71.5518 30.048C73.4558 31.7653 74.4078 34.3413 74.4078 37.776C74.4078 40.8747 73.4371 43.2827 71.4958 45C69.5545 46.7173 66.8851 47.576 63.4878 47.576H55.1438V44.048H62.9278C65.1678 44.048 66.9225 43.5253 68.1918 42.48C69.4985 41.4347 70.1518 39.848 70.1518 37.72C70.1518 35.5173 69.5171 33.912 68.2478 32.904C66.9785 31.8587 65.2051 31.336 62.9278 31.336H55.1438V27.472ZM95.3597 59V27.472H117.2V31.504H99.9517V41.08H113.392V44.944H99.9517V55.192H117.76V59H95.3597ZM139.837 59V27.472H150.869C153.557 27.472 155.834 27.752 157.701 28.312C159.605 28.872 161.061 29.824 162.069 31.168C163.077 32.4747 163.581 34.2853 163.581 36.6C163.581 38.2053 163.301 39.6427 162.741 40.912C162.218 42.1813 161.415 43.1893 160.333 43.936C159.25 44.6453 157.906 45 156.301 45C157.533 45 158.485 45.2427 159.157 45.728C159.866 46.176 160.389 46.792 160.725 47.576C161.061 48.3227 161.285 49.1253 161.397 49.984C161.509 50.8427 161.583 51.6827 161.621 52.504C161.695 53.3253 161.826 54.0347 162.013 54.632C162.199 55.2293 162.517 55.64 162.965 55.864C163.45 56.088 164.141 56.032 165.037 55.696V58.496C164.514 58.944 163.842 59.2427 163.021 59.392C162.199 59.5787 161.359 59.5227 160.501 59.224C159.679 58.9627 158.97 58.4027 158.373 57.544C157.813 56.648 157.533 55.36 157.533 53.68C157.533 52.112 157.458 50.8053 157.309 49.76C157.197 48.7147 156.917 47.912 156.469 47.352C156.021 46.7547 155.33 46.3253 154.397 46.064C153.463 45.7653 152.194 45.616 150.589 45.616C149.021 45.5787 147.005 45.5973 144.541 45.672V59H139.837ZM144.541 42.2H151.037C152.941 42.2 154.509 42.088 155.741 41.864C156.973 41.6027 157.887 41.0987 158.485 40.352C159.119 39.568 159.437 38.4293 159.437 36.936C159.437 35.1813 159.063 33.912 158.317 33.128C157.57 32.344 156.487 31.8587 155.069 31.672C153.65 31.448 151.895 31.336 149.805 31.336H144.541V42.2ZM198.691 28.48V59H194.043V28.48H198.691ZM184.299 31.504V27.472H208.379V31.504H184.299ZM242.485 59.784C238.154 59.784 234.831 58.552 232.517 56.088C230.239 53.5867 229.101 50.0773 229.101 45.56V27.472H233.973V45.504C233.973 47.3333 234.197 48.8827 234.645 50.152C235.13 51.384 235.765 52.392 236.549 53.176C237.333 53.9227 238.229 54.4827 239.237 54.856C240.282 55.192 241.365 55.36 242.485 55.36C244.165 55.36 245.639 55.0613 246.909 54.464C248.215 53.8293 249.223 52.784 249.933 51.328C250.679 49.872 251.053 47.9307 251.053 45.504V27.472H255.925V45.56C255.925 50.152 254.786 53.68 252.509 56.144C250.269 58.5707 246.927 59.784 242.485 59.784ZM279.049 59V27.472H290.081C292.769 27.472 295.047 27.752 296.913 28.312C298.817 28.872 300.273 29.824 301.281 31.168C302.289 32.4747 302.793 34.2853 302.793 36.6C302.793 38.2053 302.513 39.6427 301.953 40.912C301.431 42.1813 300.628 43.1893 299.545 43.936C298.463 44.6453 297.119 45 295.513 45C296.745 45 297.697 45.2427 298.369 45.728C299.079 46.176 299.601 46.792 299.937 47.576C300.273 48.3227 300.497 49.1253 300.609 49.984C300.721 50.8427 300.796 51.6827 300.833 52.504C300.908 53.3253 301.039 54.0347 301.225 54.632C301.412 55.2293 301.729 55.64 302.177 55.864C302.663 56.088 303.353 56.032 304.249 55.696V58.496C303.727 58.944 303.055 59.2427 302.233 59.392C301.412 59.5787 300.572 59.5227 299.713 59.224C298.892 58.9627 298.183 58.4027 297.585 57.544C297.025 56.648 296.745 55.36 296.745 53.68C296.745 52.112 296.671 50.8053 296.521 49.76C296.409 48.7147 296.129 47.912 295.681 47.352C295.233 46.7547 294.543 46.3253 293.609 46.064C292.676 45.7653 291.407 45.616 289.801 45.616C288.233 45.5787 286.217 45.5973 283.753 45.672V59H279.049ZM283.753 42.2H290.249C292.153 42.2 293.721 42.088 294.953 41.864C296.185 41.6027 297.1 41.0987 297.697 40.352C298.332 39.568 298.649 38.4293 298.649 36.936C298.649 35.1813 298.276 33.912 297.529 33.128C296.783 32.344 295.7 31.8587 294.281 31.672C292.863 31.448 291.108 31.336 289.017 31.336H283.753V42.2ZM326.032 59V27.472H347.872V31.504H330.624V41.08H344.064V44.944H330.624V55.192H348.432V59H326.032Z" fill="black"/>
<path d="M36.904 110.696C36.616 110.696 36.472 110.52 36.472 110.168C36.472 109.816 36.584 109.464 36.808 109.112C37.064 108.76 37.336 108.584 37.624 108.584C37.784 108.552 37.96 108.536 38.152 108.536C38.376 108.536 38.648 108.52 38.968 108.488C39.256 108.488 39.512 108.488 39.736 108.488C39.96 108.488 40.136 108.472 40.264 108.44H40.312C40.504 108.44 40.616 108.584 40.648 108.872C40.776 109 40.888 109.064 40.984 109.064C44.184 108.456 47.384 107.288 50.584 105.56C52.6 104.44 54.12 103.24 55.144 101.96C56.168 100.68 56.68 99.416 56.68 98.168C56.68 96.568 55.848 95.224 54.184 94.136C52.52 93.048 50.2 92.424 47.224 92.264C47.032 92.232 46.792 92.216 46.504 92.216C46.248 92.216 45.944 92.216 45.592 92.216C42.456 92.216 39.464 92.712 36.616 93.704C33.8 94.664 31.224 96.072 28.888 97.928C26.584 99.752 24.616 101.96 22.984 104.552C22.856 104.744 22.728 104.84 22.6 104.84C22.44 104.84 22.36 104.664 22.36 104.312C22.36 103.704 22.568 103.096 22.984 102.488C24.584 100.024 26.648 97.976 29.176 96.344C31.704 94.68 34.488 93.432 37.528 92.6C40.6 91.736 43.736 91.304 46.936 91.304C49.464 91.304 51.72 91.576 53.704 92.12C55.592 92.664 57.032 93.416 58.024 94.376C59.048 95.336 59.56 96.424 59.56 97.64C59.56 98.92 58.968 100.264 57.784 101.672C56.6 103.08 54.824 104.44 52.456 105.752C51.208 106.424 49.848 107.064 48.376 107.672C46.936 108.248 45.496 108.776 44.056 109.256C42.616 109.704 41.272 110.056 40.024 110.312C38.808 110.568 37.784 110.696 36.952 110.696H36.904ZM31.144 122.072C29.352 122.072 28.456 121.208 28.456 119.48C28.456 119.064 28.504 118.616 28.6 118.136C29.048 115.448 30.04 112.76 31.576 110.072C33.144 107.384 35.032 104.552 37.24 101.576L38.728 99.464C38.792 99.4 38.824 99.304 38.824 99.176C38.824 99.112 38.808 99.032 38.776 98.936C38.776 98.84 38.776 98.776 38.776 98.744C38.776 98.328 39.144 97.928 39.88 97.544C40.264 96.904 40.76 96.424 41.368 96.104C41.976 95.784 42.552 95.624 43.096 95.624C43.928 95.624 44.344 95.896 44.344 96.44C44.344 96.792 44.184 97.128 43.864 97.448C43.736 97.576 43.56 97.768 43.336 98.024C43.112 98.248 42.824 98.536 42.472 98.888C41.384 100.008 40.36 101.112 39.4 102.2C38.472 103.256 37.592 104.296 36.76 105.32V105.272C33.112 109.88 30.856 114.168 29.992 118.136C29.96 118.296 29.928 118.44 29.896 118.568C29.896 118.696 29.896 118.792 29.896 118.856C29.896 119.464 30.008 119.976 30.232 120.392C30.456 120.84 30.712 121.08 31 121.112C31.256 121.144 31.464 121.208 31.624 121.304C31.784 121.4 31.896 121.512 31.96 121.64V121.736C31.96 121.96 31.688 122.072 31.144 122.072ZM67.8655 121.832C67.1935 121.832 66.9055 121.496 67.0015 120.824C67.1935 119.608 67.5295 118.392 68.0095 117.176C68.2655 116.536 68.5855 115.8 68.9695 114.968C69.3855 114.136 69.8655 113.208 70.4095 112.184C70.6975 111.64 70.9375 111.16 71.1295 110.744C71.3535 110.328 71.5295 109.992 71.6575 109.736C71.8815 109.288 72.1055 108.808 72.3295 108.296C72.5855 107.784 72.8415 107.224 73.0975 106.616C74.3135 103.96 75.3535 101.88 76.2175 100.376C77.1135 98.84 78.0735 97.752 79.0975 97.112C79.1615 97.048 79.3375 97.048 79.6255 97.112C79.9135 97.144 80.1855 97.208 80.4415 97.304C80.7295 97.4 80.9055 97.512 80.9695 97.64C81.0655 97.864 81.1135 98.184 81.1135 98.6C81.1135 99.88 80.5215 101.416 79.3375 103.208C78.6975 104.168 77.8815 105.224 76.8895 106.376C75.9295 107.496 74.7935 108.712 73.4815 110.024L72.6175 111.416C71.6575 112.952 70.9055 114.264 70.3615 115.352C69.8495 116.44 69.6575 117.4 69.7855 118.232C69.8495 118.424 69.9295 118.52 70.0255 118.52C70.1215 118.52 70.2815 118.44 70.5055 118.28C70.7295 118.12 70.9535 117.928 71.1775 117.704C71.4335 117.48 71.6735 117.208 71.8975 116.888C72.0575 116.728 72.1855 116.552 72.2815 116.36C72.4095 116.168 72.5375 115.992 72.6655 115.832C72.8575 115.48 73.0495 115.192 73.2415 114.968C73.8495 113.944 74.3615 113.224 74.7775 112.808C75.4815 112.104 76.1055 111.752 76.6495 111.752C77.2895 111.752 77.8495 112.104 78.3295 112.808C78.8415 113.48 79.3855 114.456 79.9615 115.736C80.3775 116.696 80.7615 117.432 81.1135 117.944C81.4655 118.424 81.8015 118.664 82.1215 118.664C82.4415 118.664 82.8095 118.472 83.2255 118.088C83.6095 117.736 83.9455 117.544 84.2335 117.512C84.4255 117.736 84.4095 118.024 84.1855 118.376C83.9615 118.696 83.6255 119 83.1775 119.288C82.7615 119.608 82.3455 119.864 81.9295 120.056C81.5135 120.248 81.1935 120.312 80.9695 120.248C80.0735 119.992 79.3695 119.544 78.8575 118.904C78.3775 118.232 77.8975 117.368 77.4175 116.312C77.2575 115.96 77.1135 115.656 76.9855 115.4C76.8575 115.112 76.7295 114.888 76.6015 114.728C76.3775 114.408 76.0735 114.248 75.6895 114.248C75.4015 114.248 75.0655 114.392 74.6815 114.68C74.2975 115 73.9135 115.384 73.5295 115.832C73.1455 116.248 72.7775 116.76 72.4255 117.368C72.2015 117.688 72.0255 117.944 71.8975 118.136C71.8015 118.296 71.7215 118.408 71.6575 118.472C71.4975 118.696 71.2415 119.016 70.8895 119.432C70.5695 119.88 70.1855 120.424 69.7375 121.064C69.5775 121.256 69.3215 121.432 68.9695 121.592C68.6495 121.752 68.3295 121.832 68.0095 121.832H67.8655ZM73.7215 108.056C73.8175 108.12 74.0575 107.976 74.4415 107.624C74.8255 107.24 75.2575 106.76 75.7375 106.184C76.2495 105.576 76.7455 104.952 77.2255 104.312C77.7375 103.64 78.1375 103.048 78.4255 102.536C79.4175 100.84 79.9135 99.72 79.9135 99.176C79.9135 98.952 79.8335 98.792 79.6735 98.696C79.3535 98.44 78.9215 98.584 78.3775 99.128C77.8335 99.64 77.2895 100.328 76.7455 101.192C76.2015 102.024 75.7375 102.856 75.3535 103.688C75.1295 104.2 74.8895 104.776 74.6335 105.416C74.4095 106.056 74.2175 106.632 74.0575 107.144C73.8975 107.624 73.7855 107.928 73.7215 108.056ZM101.248 119.816C100 119.816 99.376 119.256 99.376 118.136C99.376 118.072 99.376 117.96 99.376 117.8C99.408 117.64 99.44 117.448 99.472 117.224C99.792 115.912 100.432 114.648 101.392 113.432C102.384 112.184 103.52 111.096 104.8 110.168C105.28 109.784 106.048 109.592 107.104 109.592C107.712 109.592 108.24 109.688 108.688 109.88C109.168 110.04 109.504 110.296 109.696 110.648C109.888 110.968 109.984 111.336 109.984 111.752C109.984 111.816 109.968 111.912 109.936 112.04C109.936 112.168 109.92 112.312 109.888 112.472C109.952 112.44 110.048 112.424 110.176 112.424C110.336 112.424 110.528 112.408 110.752 112.376C110.976 112.344 111.184 112.312 111.376 112.28C111.6 112.248 111.824 112.232 112.048 112.232H112.24C112.592 112.232 112.624 112.376 112.336 112.664C112.08 112.92 111.728 113.08 111.28 113.144L109.648 113.336C109.328 114.232 108.768 115.128 107.968 116.024C107.2 116.92 106.336 117.704 105.376 118.376C104.448 119.016 103.568 119.432 102.736 119.624C102.256 119.752 101.76 119.816 101.248 119.816ZM107.392 112.664C107.584 112.664 107.808 112.664 108.064 112.664C108.352 112.632 108.672 112.6 109.024 112.568C109.056 112.504 109.072 112.36 109.072 112.136C109.072 111.56 108.832 111.16 108.352 110.936C108.096 110.776 107.776 110.696 107.392 110.696C106.912 110.696 106.416 110.856 105.904 111.176C105.424 111.464 104.912 111.848 104.368 112.328C105.04 112.552 106.048 112.664 107.392 112.664ZM102.688 118.136C103.008 118.136 103.456 117.992 104.032 117.704C104.64 117.384 105.264 116.968 105.904 116.456C106.544 115.944 107.12 115.4 107.632 114.824C107.792 114.664 107.952 114.472 108.112 114.248C108.272 113.992 108.448 113.736 108.64 113.48L107.488 113.624C105.696 113.88 104.096 114.024 102.688 114.056C101.984 115.208 101.552 116.168 101.392 116.936C101.36 117.352 101.472 117.656 101.728 117.848C101.984 118.04 102.304 118.136 102.688 118.136ZM125.888 123.464C125.728 123.464 125.648 123.32 125.648 123.032C125.648 122.968 125.648 122.872 125.648 122.744C125.68 122.648 125.712 122.536 125.744 122.408L127.808 117.224L130.256 111.176C129.872 111.144 129.312 111.16 128.576 111.224C127.84 111.256 127.216 111.32 126.704 111.416C126.512 111.448 126.352 111.48 126.224 111.512C126.128 111.512 126.048 111.512 125.984 111.512C125.728 111.512 125.552 111.4 125.456 111.176C125.488 110.984 125.664 110.808 125.984 110.648C126.144 110.584 126.336 110.536 126.56 110.504C126.784 110.44 127.056 110.376 127.376 110.312C127.728 110.248 128.032 110.2 128.288 110.168C128.576 110.136 128.784 110.104 128.912 110.072C129.072 110.04 129.232 110.008 129.392 109.976C129.552 109.944 129.744 109.912 129.968 109.88C130.16 109.848 130.368 109.816 130.592 109.784C130.816 109.752 131.056 109.704 131.312 109.64C131.568 109.288 131.952 108.664 132.464 107.768C132.976 106.872 133.632 105.688 134.432 104.216C135.072 103.032 135.584 102.104 135.968 101.432C136.384 100.728 136.672 100.264 136.832 100.04C137.12 99.656 137.456 99.464 137.84 99.464C138.032 99.464 138.128 99.544 138.128 99.704C138.128 99.736 138.048 99.944 137.888 100.328C137.696 100.648 137.376 101.24 136.928 102.104C136.48 102.968 136 103.912 135.488 104.936C134.976 105.96 134.512 106.92 134.096 107.816C133.68 108.712 133.392 109.368 133.232 109.784C133.392 109.752 133.568 109.736 133.76 109.736C133.984 109.736 134.256 109.736 134.576 109.736C134.928 109.736 135.248 109.752 135.536 109.784C135.856 109.784 136.128 109.8 136.352 109.832C136.8 109.928 137.024 110.056 137.024 110.216C137.024 110.28 136.88 110.392 136.592 110.552C136.432 110.616 136.128 110.68 135.68 110.744C135.232 110.808 134.64 110.872 133.904 110.936C133.712 110.936 133.504 110.952 133.28 110.984C133.056 110.984 132.816 111 132.56 111.032C131.6 112.6 130.288 115.208 128.624 118.856C128.016 120.072 127.552 121.016 127.232 121.688C126.912 122.36 126.72 122.76 126.656 122.888C126.368 123.272 126.112 123.464 125.888 123.464ZM151.095 119.816C149.847 119.816 149.223 119.256 149.223 118.136C149.223 118.072 149.223 117.96 149.223 117.8C149.255 117.64 149.287 117.448 149.319 117.224C149.639 115.912 150.279 114.648 151.239 113.432C152.231 112.184 153.367 111.096 154.647 110.168C155.127 109.784 155.895 109.592 156.951 109.592C157.559 109.592 158.087 109.688 158.535 109.88C159.015 110.04 159.351 110.296 159.543 110.648C159.735 110.968 159.831 111.336 159.831 111.752C159.831 111.816 159.815 111.912 159.783 112.04C159.783 112.168 159.767 112.312 159.735 112.472C159.799 112.44 159.895 112.424 160.023 112.424C160.183 112.424 160.375 112.408 160.599 112.376C160.823 112.344 161.031 112.312 161.223 112.28C161.447 112.248 161.671 112.232 161.895 112.232H162.087C162.439 112.232 162.471 112.376 162.183 112.664C161.927 112.92 161.575 113.08 161.127 113.144L159.495 113.336C159.175 114.232 158.615 115.128 157.815 116.024C157.047 116.92 156.183 117.704 155.223 118.376C154.295 119.016 153.415 119.432 152.583 119.624C152.103 119.752 151.607 119.816 151.095 119.816ZM157.239 112.664C157.431 112.664 157.655 112.664 157.911 112.664C158.199 112.632 158.519 112.6 158.871 112.568C158.903 112.504 158.919 112.36 158.919 112.136C158.919 111.56 158.679 111.16 158.199 110.936C157.943 110.776 157.623 110.696 157.239 110.696C156.759 110.696 156.263 110.856 155.751 111.176C155.271 111.464 154.759 111.848 154.215 112.328C154.887 112.552 155.895 112.664 157.239 112.664ZM152.535 118.136C152.855 118.136 153.303 117.992 153.879 117.704C154.487 117.384 155.111 116.968 155.751 116.456C156.391 115.944 156.967 115.4 157.479 114.824C157.639 114.664 157.799 114.472 157.959 114.248C158.119 113.992 158.295 113.736 158.487 113.48L157.335 113.624C155.543 113.88 153.943 114.024 152.535 114.056C151.831 115.208 151.399 116.168 151.239 116.936C151.207 117.352 151.319 117.656 151.575 117.848C151.831 118.04 152.151 118.136 152.535 118.136ZM175.159 129.32C174.455 129.32 173.879 128.984 173.431 128.312C172.951 127.672 172.711 126.936 172.711 126.104C172.711 125.432 172.807 124.936 172.999 124.616C173.255 124.264 173.495 124.088 173.719 124.088C173.975 124.088 174.103 124.232 174.103 124.52C174.103 124.776 174.007 125.032 173.815 125.288C173.687 125.448 173.623 125.656 173.623 125.912C173.623 126.392 173.783 126.872 174.103 127.352C174.423 127.832 174.807 128.072 175.255 128.072C175.319 128.072 175.383 128.056 175.447 128.024C175.511 128.024 175.591 128.008 175.687 127.976C177.191 127.4 178.567 126.2 179.815 124.376C181.063 122.52 182.087 120.488 182.887 118.28C183.687 116.04 184.279 113.976 184.663 112.088L184.471 112.04C184.375 111.976 184.231 112.056 184.039 112.28C183.847 112.472 183.655 112.696 183.463 112.952C183.271 113.176 183.143 113.336 183.079 113.432C182.983 113.56 182.727 113.848 182.311 114.296C181.927 114.712 181.463 115.192 180.919 115.736C180.375 116.248 179.831 116.76 179.287 117.272C178.743 117.784 178.279 118.2 177.895 118.52C177.415 118.936 176.823 119.144 176.119 119.144C175.927 119.144 175.735 119.112 175.543 119.048C175.191 118.856 175.015 118.552 175.015 118.136C175.015 117.592 175.335 116.76 175.975 115.64C176.455 114.808 177.175 113.768 178.135 112.52C179.095 111.24 180.151 110.152 181.303 109.256C182.135 108.584 182.999 108.152 183.895 107.96C184.055 107.928 184.215 107.912 184.375 107.912C184.535 107.88 184.695 107.848 184.855 107.816C185.015 107.816 185.159 107.816 185.287 107.816C185.415 107.816 185.543 107.8 185.671 107.768C185.703 107.768 185.943 107.752 186.391 107.72C186.871 107.656 187.175 107.496 187.303 107.24L187.447 107.192C187.575 107.192 187.703 107.256 187.831 107.384C187.927 107.48 187.975 107.672 187.975 107.96C187.975 108.056 187.959 108.184 187.927 108.344C187.895 108.472 187.879 108.632 187.879 108.824V108.872C187.879 110.056 187.655 111.288 187.207 112.568C186.759 113.816 186.279 115.096 185.767 116.408C184.711 119.064 183.367 121.528 181.735 123.8C180.135 126.072 178.359 127.784 176.407 128.936C175.991 129.192 175.575 129.32 175.159 129.32ZM176.599 117.416C176.727 117.48 176.823 117.512 176.887 117.512C177.047 117.512 177.287 117.432 177.607 117.272C177.831 117.144 178.055 116.984 178.279 116.792C178.535 116.6 178.823 116.376 179.143 116.12C179.367 115.96 179.623 115.736 179.911 115.448C180.199 115.16 180.535 114.824 180.919 114.44L181.831 113.576C182.279 113.128 182.759 112.6 183.271 111.992C183.783 111.384 184.215 110.792 184.567 110.216C184.919 109.64 185.095 109.192 185.095 108.872C185.095 108.584 184.919 108.44 184.567 108.44C184.215 108.44 183.735 108.632 183.127 109.016C182.551 109.4 181.943 109.864 181.303 110.408C180.695 110.952 180.167 111.48 179.719 111.992C179.303 112.408 178.903 112.872 178.519 113.384C178.167 113.864 177.815 114.376 177.463 114.92C177.047 115.528 176.759 116.056 176.599 116.504C176.407 116.984 176.407 117.288 176.599 117.416ZM202.451 120.008C202.035 120.008 201.827 119.64 201.827 118.904C201.827 118.296 201.971 117.704 202.259 117.128C202.995 115.72 203.667 114.328 204.275 112.952C204.691 112.12 205.075 111.32 205.427 110.552C205.811 109.784 206.163 109.08 206.483 108.44C206.675 108.248 206.867 108.152 207.059 108.152C207.475 108.152 207.603 108.344 207.443 108.728C207.379 108.952 207.283 109.224 207.155 109.544C207.059 109.832 206.931 110.184 206.771 110.6C206.259 111.944 205.955 112.888 205.859 113.432C206.755 112.632 207.667 111.896 208.595 111.224C209.555 110.52 210.451 109.944 211.283 109.496C212.115 109.048 212.819 108.824 213.395 108.824C213.907 108.824 214.163 109.032 214.163 109.448C214.163 109.8 214.003 110.184 213.683 110.6C213.363 110.984 213.043 111.176 212.723 111.176C212.563 111.176 212.435 111.128 212.339 111.032C212.243 111 212.051 110.984 211.763 110.984C210.739 110.984 209.667 111.48 208.547 112.472C207.363 113.464 206.291 114.664 205.331 116.072C204.371 117.448 203.667 118.648 203.219 119.672C202.995 119.896 202.739 120.008 202.451 120.008ZM233.904 120.296C233.84 120.296 233.776 120.28 233.712 120.248C233.648 120.248 233.584 120.232 233.52 120.2C233.072 119.976 232.784 119.656 232.656 119.24C232.528 118.824 232.496 118.296 232.56 117.656C232.624 117.4 232.688 116.952 232.752 116.312C232.848 115.672 232.96 115.16 233.088 114.776L230.64 117.128L229.296 118.424C228.368 119.352 227.6 119.816 226.992 119.816C226.736 119.816 226.528 119.72 226.368 119.528C226.08 119.176 225.936 118.744 225.936 118.232C225.936 117.56 226.112 116.84 226.464 116.072C226.816 115.304 227.232 114.568 227.712 113.864C228.192 113.128 228.624 112.52 229.008 112.04C229.968 110.856 230.896 109.928 231.792 109.256C232.72 108.584 233.68 108.248 234.672 108.248C235.216 108.248 235.744 108.344 236.256 108.536C236.8 108.728 237.296 109.048 237.744 109.496L237.792 109.544C237.792 109.64 237.712 109.736 237.552 109.832C237.488 109.896 237.424 109.944 237.36 109.976C237.328 110.008 237.296 110.04 237.264 110.072C236.88 110.456 236.448 111.096 235.968 111.992C235.488 112.888 235.072 113.832 234.72 114.824C234.368 115.784 234.192 116.616 234.192 117.32C234.192 117.96 234.352 118.392 234.672 118.616C234.832 118.712 235.008 118.76 235.2 118.76C235.616 118.76 236.192 118.504 236.928 117.992C236.96 117.96 237.024 117.912 237.12 117.848C237.248 117.752 237.424 117.624 237.648 117.464C237.904 117.272 238.112 117.176 238.272 117.176C238.432 117.176 238.512 117.24 238.512 117.368C238.512 117.56 238.384 117.784 238.128 118.04C237.936 118.2 237.712 118.376 237.456 118.568C237.232 118.76 236.96 118.952 236.64 119.144C236.16 119.496 235.664 119.768 235.152 119.96C234.64 120.184 234.224 120.296 233.904 120.296ZM228.48 117.224C229.152 117.224 230.4 116.232 232.224 114.248C232.704 113.704 233.136 113.192 233.52 112.712C233.904 112.2 234.256 111.704 234.576 111.224C235.152 110.296 235.344 109.656 235.152 109.304C235.056 109.112 234.864 109.016 234.576 109.016C234.224 109.016 233.744 109.208 233.136 109.592C232.528 109.944 231.904 110.408 231.264 110.984C230.656 111.56 230.096 112.136 229.584 112.712C229.232 113.16 228.88 113.784 228.528 114.584C228.176 115.384 228 116.04 228 116.552C228 117 228.16 117.224 228.48 117.224ZM247.68 132.872C247.36 132.872 247.136 132.84 247.008 132.776C246.912 132.68 246.816 132.568 246.72 132.44C246.624 132.312 246.576 132.2 246.576 132.104C246.64 130.728 247.072 129.16 247.872 127.4C248.672 125.64 249.728 123.8 251.04 121.88C252.32 119.96 253.696 118.12 255.168 116.36C256.48 114.76 257.392 113.56 257.904 112.76C258.32 112.056 258.8 111.032 259.344 109.688C259.92 108.312 260.56 106.632 261.264 104.648C261.328 104.456 261.568 104.328 261.984 104.264C262.496 104.264 262.752 104.648 262.752 105.416C262.752 105.832 262.704 106.136 262.608 106.328C262.576 106.488 262.528 106.648 262.464 106.808C262.432 106.936 262.4 107.032 262.368 107.096C262.272 107.288 262.224 107.416 262.224 107.48C262.224 107.48 262.24 107.528 262.272 107.624C262.304 107.72 262.336 107.848 262.368 108.008C263.424 107.496 264.352 107.096 265.152 106.808C265.952 106.488 266.72 106.328 267.456 106.328C268.32 106.328 268.912 106.616 269.232 107.192C269.328 107.384 269.376 107.624 269.376 107.912C269.376 108.616 269.104 109.512 268.56 110.6C268.016 111.656 267.312 112.76 266.448 113.912C265.616 115.032 264.704 116.04 263.712 116.936C263.36 117.256 262.848 117.608 262.176 117.992C261.536 118.376 260.832 118.728 260.064 119.048C259.328 119.4 258.608 119.688 257.904 119.912C257.232 120.136 256.704 120.248 256.32 120.248C255.904 121.112 255.488 121.944 255.072 122.744C254.656 123.576 254.224 124.376 253.776 125.144C251.728 128.792 249.904 131.336 248.304 132.776C248.24 132.84 248.032 132.872 247.68 132.872ZM257.328 118.184C258.832 117.928 260.432 117.272 262.128 116.216C263.824 115.16 265.232 113.896 266.352 112.424C267.472 110.952 267.984 109.48 267.888 108.008C267.696 107.432 267.296 107.144 266.688 107.144C266.272 107.144 265.744 107.288 265.104 107.576C264.496 107.864 263.872 108.232 263.232 108.68C262.592 109.128 262.016 109.576 261.504 110.024C261.024 110.472 260.688 110.856 260.496 111.176C260.336 111.4 260.144 111.8 259.92 112.376C259.792 112.632 259.696 112.856 259.632 113.048C259.568 113.24 259.52 113.368 259.488 113.432C259.328 113.848 259.136 114.312 258.912 114.824C258.688 115.304 258.448 115.816 258.192 116.36L257.328 118.184ZM248.256 130.04C248.256 130.168 248.288 130.232 248.352 130.232C248.512 130.232 248.8 129.992 249.216 129.512C249.888 128.808 250.4 128.168 250.752 127.592C251.392 126.568 252 125.544 252.576 124.52C253.12 123.496 253.648 122.472 254.16 121.448C255.216 119.4 255.664 118.152 255.504 117.704C255.024 118.184 254.464 118.872 253.824 119.768C253.152 120.696 252.48 121.72 251.808 122.84C251.104 123.96 250.464 125.064 249.888 126.152C249.28 127.272 248.816 128.264 248.496 129.128C248.336 129.672 248.256 129.976 248.256 130.04ZM281.831 121.832C281.159 121.832 280.871 121.496 280.967 120.824C281.159 119.608 281.495 118.392 281.975 117.176C282.231 116.536 282.551 115.8 282.935 114.968C283.351 114.136 283.831 113.208 284.375 112.184C284.663 111.64 284.903 111.16 285.095 110.744C285.319 110.328 285.495 109.992 285.623 109.736C285.847 109.288 286.071 108.808 286.295 108.296C286.551 107.784 286.807 107.224 287.063 106.616C288.279 103.96 289.319 101.88 290.183 100.376C291.079 98.84 292.039 97.752 293.063 97.112C293.127 97.048 293.303 97.048 293.591 97.112C293.879 97.144 294.151 97.208 294.407 97.304C294.695 97.4 294.871 97.512 294.935 97.64C295.031 97.864 295.079 98.184 295.079 98.6C295.079 99.88 294.487 101.416 293.303 103.208C292.663 104.168 291.847 105.224 290.855 106.376C289.895 107.496 288.759 108.712 287.447 110.024L286.583 111.416C285.623 112.952 284.871 114.264 284.327 115.352C283.815 116.44 283.623 117.4 283.751 118.232C283.815 118.424 283.895 118.52 283.991 118.52C284.087 118.52 284.247 118.44 284.471 118.28C284.695 118.12 284.919 117.928 285.143 117.704C285.399 117.48 285.639 117.208 285.863 116.888C286.023 116.728 286.151 116.552 286.247 116.36C286.375 116.168 286.503 115.992 286.631 115.832C286.823 115.48 287.015 115.192 287.207 114.968C287.815 113.944 288.327 113.224 288.743 112.808C289.447 112.104 290.071 111.752 290.615 111.752C291.255 111.752 291.815 112.104 292.295 112.808C292.807 113.48 293.351 114.456 293.927 115.736C294.343 116.696 294.727 117.432 295.079 117.944C295.431 118.424 295.767 118.664 296.087 118.664C296.407 118.664 296.775 118.472 297.191 118.088C297.575 117.736 297.911 117.544 298.199 117.512C298.391 117.736 298.375 118.024 298.151 118.376C297.927 118.696 297.591 119 297.143 119.288C296.727 119.608 296.311 119.864 295.895 120.056C295.479 120.248 295.159 120.312 294.935 120.248C294.039 119.992 293.335 119.544 292.823 118.904C292.343 118.232 291.863 117.368 291.383 116.312C291.223 115.96 291.079 115.656 290.951 115.4C290.823 115.112 290.695 114.888 290.567 114.728C290.343 114.408 290.039 114.248 289.655 114.248C289.367 114.248 289.031 114.392 288.647 114.68C288.263 115 287.879 115.384 287.495 115.832C287.111 116.248 286.743 116.76 286.391 117.368C286.167 117.688 285.991 117.944 285.863 118.136C285.767 118.296 285.687 118.408 285.623 118.472C285.463 118.696 285.207 119.016 284.855 119.432C284.535 119.88 284.151 120.424 283.703 121.064C283.543 121.256 283.287 121.432 282.935 121.592C282.615 121.752 282.295 121.832 281.975 121.832H281.831ZM287.687 108.056C287.783 108.12 288.023 107.976 288.407 107.624C288.791 107.24 289.223 106.76 289.703 106.184C290.215 105.576 290.711 104.952 291.191 104.312C291.703 103.64 292.103 103.048 292.391 102.536C293.383 100.84 293.879 99.72 293.879 99.176C293.879 98.952 293.799 98.792 293.639 98.696C293.319 98.44 292.887 98.584 292.343 99.128C291.799 99.64 291.255 100.328 290.711 101.192C290.167 102.024 289.703 102.856 289.319 103.688C289.095 104.2 288.855 104.776 288.599 105.416C288.375 106.056 288.183 106.632 288.023 107.144C287.863 107.624 287.751 107.928 287.687 108.056ZM313.918 128.84C313.214 128.84 312.638 128.52 312.19 127.88C311.742 127.24 311.518 126.488 311.518 125.624C311.518 125.144 311.598 124.712 311.758 124.328C312.014 123.784 312.222 123.512 312.382 123.512C312.51 123.512 312.574 123.608 312.574 123.8C312.574 123.96 312.526 124.168 312.43 124.424C312.398 124.52 312.382 124.6 312.382 124.664C312.35 124.76 312.334 124.84 312.334 124.904C312.334 125.48 312.494 126.072 312.814 126.68C313.166 127.288 313.598 127.592 314.11 127.592L314.494 127.496C315.262 127.304 315.982 126.872 316.654 126.2C317.358 125.56 318.046 124.76 318.718 123.8C319.614 122.488 320.414 121.064 321.118 119.528C321.822 118.024 322.43 116.52 322.942 115.016C323.454 113.512 323.838 112.152 324.094 110.936C324.094 110.776 324.03 110.696 323.902 110.696C323.678 110.696 323.326 110.952 322.846 111.464C322.462 111.88 321.966 112.456 321.358 113.192C320.75 113.928 319.998 114.808 319.102 115.832L318.334 116.744C317.822 117.352 317.294 117.8 316.75 118.088C316.238 118.344 315.758 118.472 315.31 118.472C314.926 118.472 314.606 118.392 314.35 118.232C314.03 118.008 313.87 117.608 313.87 117.032C313.87 116.104 314.302 114.568 315.166 112.424L315.79 110.888C316.11 110.152 316.382 109.48 316.606 108.872C316.862 108.264 317.102 107.704 317.326 107.192C317.55 106.776 317.806 106.568 318.094 106.568C318.446 106.568 318.51 106.776 318.286 107.192C317.134 109.816 316.462 111.88 316.27 113.384C316.238 113.448 316.222 113.544 316.222 113.672C316.222 113.768 316.222 113.88 316.222 114.008C316.222 114.712 316.51 115.064 317.086 115.064C317.47 115.064 318.014 114.84 318.718 114.392C319.422 113.88 320.302 113.08 321.358 111.992C322.414 110.872 323.678 109.464 325.15 107.768C325.406 107.512 325.646 107.256 325.87 107C326.094 106.744 326.302 106.504 326.494 106.28C326.622 106.152 326.734 106.088 326.83 106.088C326.926 106.088 326.974 106.232 326.974 106.52C326.974 106.808 326.926 107.176 326.83 107.624C326.734 108.04 326.686 108.296 326.686 108.392C326.302 110.728 325.598 113.24 324.574 115.928C323.518 118.584 322.174 121.048 320.542 123.32C318.942 125.592 317.15 127.304 315.166 128.456C314.75 128.712 314.334 128.84 313.918 128.84Z" fill="black"/>
</svg>
